<svg xmlns="http://www.w3.org/2000/svg" aria-hidden="true" style="position:absolute;width:0;height:0;overflow:hidden">
  <defs>
    <symbol id="icon-copy" viewBox="0 0 32 32">
      <path fill="#fff" d="M19.999 1.332H5.332a2.675 2.675 0 0 0-2.667 2.667v17.333c0 .733.6 1.333 1.333 1.333s1.333-.6 1.333-1.333v-16c0-.733.6-1.333 1.333-1.333h13.333c.733 0 1.333-.6 1.333-1.333s-.6-1.333-1.333-1.333zm5.334 5.333H10.666a2.675 2.675 0 0 0-2.667 2.667v18.667c0 1.467 1.2 2.667 2.667 2.667h14.667c1.467 0 2.667-1.2 2.667-2.667V9.332c0-1.467-1.2-2.667-2.667-2.667zm-1.334 21.334h-12c-.733 0-1.333-.6-1.333-1.333v-16c0-.733.6-1.333 1.333-1.333h12c.733 0 1.333.6 1.333 1.333v16c0 .733-.6 1.333-1.333 1.333z" style="fill:var(--color1, #fff)"/>
    </symbol>
    <symbol id="icon-linkedin" viewBox="0 0 32 32">
      <path fill="#fff" d="m31.716 31.718.008-.001v-11.53c0-5.641-1.214-9.986-7.809-9.986-3.17 0-5.297 1.74-6.166 3.389h-.092v-2.862h-6.252v20.989h6.51V21.324c0-2.736.519-5.383 3.908-5.383 3.339 0 3.389 3.123 3.389 5.558v10.219h6.504zM.803 10.728h6.518v20.989H.803V10.728zM4.056.28C1.972.28.281 1.971.281 4.055s1.691 3.811 3.775 3.811c2.084 0 3.775-1.726 3.775-3.811A3.777 3.777 0 0 0 4.056.28z" style="fill:var(--color1, #fff)"/>
    </symbol>
    <symbol id="icon-telegram" viewBox="0 0 32 32">
      <path fill="#f9f9f9" d="m2.852 15.833 6.327 2.149 15.022-9.184c.218-.133.441.163.253.335L13.081 19.601l-.423 5.861a.485.485 0 0 0 .824.381l3.502-3.443 6.401 4.846c.69.523 1.689.154 1.875-.691l4.457-20.239c.254-1.155-.877-2.129-1.981-1.706L2.819 14.151c-.782.299-.76 1.412.032 1.682z" style="fill:var(--color2, #f9f9f9)"/>
    </symbol>
    <symbol id="icon-instagram" viewBox="0 0 32 32">
      <path fill="#fff" d="M16.002 9.233c-3.731 0-6.766 3.035-6.766 6.766s3.035 6.766 6.766 6.766 6.766-3.035 6.766-6.766a6.774 6.774 0 0 0-6.766-6.767z" style="fill:var(--color1, #fff)"/>
      <path fill="#fff" d="M23.101.281H8.899C4.147.281.281 4.147.281 8.899v14.202c0 4.752 3.866 8.618 8.618 8.618h14.202c4.752 0 8.619-3.866 8.619-8.618V8.899c0-4.752-3.866-8.618-8.618-8.618zM16 24.624c-4.755 0-8.623-3.868-8.623-8.623S11.245 7.378 16 7.378c4.755 0 8.623 3.868 8.623 8.623S20.755 24.624 16 24.624zm9.139-15.142c-1.444 0-2.62-1.175-2.62-2.62s1.175-2.62 2.62-2.62 2.62 1.175 2.62 2.62-1.175 2.62-2.62 2.62z" style="fill:var(--color1, #fff)"/>
    </symbol>
    <symbol id="icon-calendar-inner" viewBox="0 0 27 32">
      <path d="m11.229 20.632 1.333 1.333a1.003 1.003 0 0 0 1.476-.068l2.221-2.667a1 1 0 0 0-1.536-1.28l-1.521 1.825-.559-.559a1 1 0 1 0-1.415 1.415z"/>
      <path d="M27.381 11.981v14.333c0 .972-.387 1.905-1.073 2.593a3.67 3.67 0 0 1-2.593 1.073h-20a3.675 3.675 0 0 1-2.593-1.073 3.67 3.67 0 0 1-1.073-2.593V11.981h27.333zm-13.667 1.371a6.335 6.335 0 0 0-6.333 6.333c0 3.495 2.837 6.333 6.333 6.333s6.333-2.839 6.333-6.333a6.335 6.335 0 0 0-6.333-6.333zM.048 9.981h27.333V7.685c0-.972-.387-1.905-1.073-2.593a3.67 3.67 0 0 0-2.593-1.073h-3v3.333a1 1 0 0 1-2 0V4.019h-10v3.333a1 1 0 0 1-2 0V4.019h-3c-.972 0-1.905.387-2.593 1.073A3.67 3.67 0 0 0 .049 7.685v2.296zM18.714 4.018h2v-1a1 1 0 0 0-2 0v1zM6.714 4.018h2v-1a1 1 0 0 0-2 0v1z"/>
    </symbol>
    <symbol id="icon-search" viewBox="0 0 32 32">
      <path d="M13.867 3.2C7.989 3.2 3.2 7.988 3.2 13.867s4.788 10.667 10.667 10.667c2.556 0 4.904-.908 6.744-2.415l6.369 6.369a1.067 1.067 0 1 0 1.509-1.508l-6.369-6.369a10.61 10.61 0 0 0 2.415-6.744c0-5.878-4.788-10.667-10.667-10.667zm0 2.133c4.725 0 8.533 3.808 8.533 8.533s-3.808 8.533-8.533 8.533-8.533-3.808-8.533-8.533 3.808-8.533 8.533-8.533z"/>
    </symbol>
    <symbol id="icon-graph" viewBox="0 0 32 32">
      <path d="M29.227 8.827a1.342 1.342 0 0 0-.711-.717l-.009-.003A1.329 1.329 0 0 0 28.001 8h-6.668a1.333 1.333 0 0 0 0 2.666h3.453l-7.453 7.453-4.387-4.4a1.333 1.333 0 0 0-1.894 0l-8 8a1.333 1.333 0 0 0 0 1.894 1.333 1.333 0 0 0 1.894 0l7.053-7.067 4.387 4.4a1.333 1.333 0 0 0 1.894 0l8.387-8.4v3.453a1.333 1.333 0 0 0 2.666 0V9.332a1.316 1.316 0 0 0-.11-.515l.003.009z"/>
    </symbol>
    <symbol id="icon-setup" viewBox="0 0 32 32">
      <path d="M4.688 9.375a4.688 4.688 0 1 0 0-9.376 4.688 4.688 0 0 0 0 9.376zM16.003 20.687a4.687 4.687 0 1 0 0-9.374 4.687 4.687 0 0 0 0 9.374zM27.313 32a4.687 4.687 0 1 0 0-9.374 4.687 4.687 0 0 0 0 9.374zM11 6.563a7.158 7.158 0 0 0 0-3.75h19.126c1.035 0 1.875.841 1.875 1.875s-.84 1.875-1.875 1.875H11zM9.438 16c0-.656.126-1.277.306-1.875H1.875C.84 14.125 0 14.966 0 16s.84 1.875 1.875 1.875h7.869c-.18-.598-.306-1.219-.306-1.875zM30.124 14.125h-7.869c.18.598.306 1.219.306 1.875s-.126 1.277-.306 1.875h7.869c1.035 0 1.875-.841 1.875-1.875s-.84-1.875-1.875-1.875zM1.875 29.187C.84 29.187 0 28.346 0 27.312s.84-1.875 1.875-1.875h19.126a7.158 7.158 0 0 0 0 3.75H1.875z" />
    </symbol>
    <symbol id="icon-play" viewBox="0 0 28 32">
      <path fill="#fff" d="M26.435 13.59c1.855 1.071 1.855 3.749 0 4.82L4.522 31.061c-1.855 1.071-4.174-.268-4.174-2.41V3.348c0-2.142 2.319-3.481 4.174-2.41L26.435 13.59z" style="fill:var(--color1, #fff)"/>
    </symbol>
    <symbol id="icon-label_crown" viewBox="0 0 32 32">
      <path fill="#fff" d="M11.391 27.529s6.549.032 8.71 1.839l-1.129.403s-3.065-2.178-8.404-1.774c.274-.242.823-.468.823-.468z" style="fill:var(--color1, #fff)"/>
      <path fill="#fff" d="M20.602 27.529s-6.549.032-8.71 1.839l1.129.403s3.065-2.178 8.404-1.774c-.274-.242-.823-.468-.823-.468zM5.875 4.98c1.371-.887 2.79-2.21 5.226-3.113-1.774.016-4.581 1.129-5.226 3.113zM7.456 5.254c-.29.129-.5.21-.742.274-.452.113-.823.145-1.21.274a2.245 2.245 0 0 0-.774.436 2.47 2.47 0 0 0-.452.484c-.226.323-.419.839-.419 1.226.177-.177.339-.323.516-.452.274-.194.532-.339.806-.452a4.62 4.62 0 0 0 .565-.258c.758-.387 1.194-.936 1.71-1.532z" style="fill:var(--color1, #fff)"/>
      <path fill="#fff" d="M3.843 7.964c0-.565.516-1.516.823-1.887a4.12 4.12 0 0 0 .516-.855c.258-.532.484-1.145.548-1.613-.323.194-.661.403-1.016.677-.774.629-1.21 1.306-1.097 2.226.032.371.032 1.145.226 1.452zM5.214 8.06c-.258.177-.452.29-.661.387-.419.177-.774.274-1.113.468a2.046 2.046 0 0 0-.661.565 2.343 2.343 0 0 0-.339.548c-.145.355-.226.903-.129 1.274a3.51 3.51 0 0 1 .403-.532 2.98 2.98 0 0 1 .694-.581c.177-.113.339-.226.5-.339.629-.5.936-1.129 1.306-1.79z" style="fill:var(--color1, #fff)"/>
      <path fill="#fff" d="M2.295 11.319c-.129-.548.161-1.581.387-1.984.145-.29.242-.597.306-.919.129-.565.21-1.194.177-1.661-.274.258-.548.5-.855.839-.613.742-.887 1.484-.581 2.371.113.339.306 1.081.565 1.355zM3.875 10.867a4.13 4.13 0 0 1-.565.597c-.371.306-.726.5-1.016.79-.242.242-.387.5-.5.774a2.393 2.393 0 0 0-.161.677 2.72 2.72 0 0 0 .323 1.403c.065-.258.145-.468.226-.677a3.5 3.5 0 0 1 .532-.806c.145-.177.29-.339.403-.5.516-.71.613-1.452.758-2.258z" style="fill:var(--color1, #fff)"/>
      <path fill="#fff" d="M1.955 15.126c-.339-.548-.403-1.726-.323-2.21a4.74 4.74 0 0 0 0-1.065c-.065-.645-.226-1.339-.435-1.823-.194.339-.403.677-.597 1.113-.387.968-.403 1.823.258 2.678.258.339.726 1.081 1.097 1.307zM3.246 14.173c-.145.29-.258.5-.419.694-.29.371-.597.629-.823.984-.177.29-.274.565-.306.871-.032.274-.032.5.016.71.081.436.339 1 .677 1.339a3.34 3.34 0 0 1 .388-1.629c.113-.21.194-.387.274-.581.339-.79.242-1.548.194-2.387z" style="fill:var(--color1, #fff)"/>
      <path fill="#fff" d="M2.391 18.787c-.484-.484-.839-1.645-.871-2.161-.032-.355-.145-.71-.274-1.065-.226-.629-.548-1.29-.887-1.742-.113.387-.242.758-.323 1.226-.129 1.048.065 1.903.936 2.645.339.29 1 .936 1.419 1.097zM3.311 17.335a3.895 3.895 0 0 1-.161.839c-.161.468-.371.823-.484 1.242a2.02 2.02 0 0 0 .016.984c.065.29.161.516.274.726.242.419.726.936 1.194 1.194a6.153 6.153 0 0 1-.21-.758 3.062 3.062 0 0 1 0-1.016c.032-.242.065-.452.065-.661.064-.952-.323-1.71-.694-2.549z" style="fill:var(--color1, #fff)"/>
      <path fill="#fff" d="M4.166 22.319c-.677-.371-1.484-1.468-1.71-1.984-.161-.355-.419-.694-.677-1.016-.468-.581-1.048-1.177-1.565-1.548.016.419.048.839.129 1.355.242 1.097.758 1.936 1.936 2.452.468.194 1.387.694 1.887.742zM4.585 20.481c.097.371.145.645.161.936.016.548-.081.984-.016 1.468.048.387.194.726.403 1.032.194.29.371.5.581.694.436.371 1.161.79 1.758.919a4.428 4.428 0 0 1-.516-.742 3.833 3.833 0 0 1-.403-1.081 15.16 15.16 0 0 0-.194-.726c-.339-1.016-1.048-1.71-1.774-2.5z" style="fill:var(--color1, #fff)"/>
      <path fill="#fff" d="M7.488 25.545c-.871-.194-2.161-1.129-2.613-1.597-.323-.339-.71-.613-1.129-.887-.726-.484-1.597-.952-2.29-1.194.194.452.387.887.677 1.403.694 1.097 1.581 1.839 3.049 2.048.565.065 1.758.323 2.307.226zM7.23 23.432c.274.339.436.597.565.887.242.548.355 1 .629 1.468.226.371.532.661.887.919.323.226.613.387.919.516.613.242 1.565.436 2.242.387-.355-.21-.629-.387-.871-.597a4.21 4.21 0 0 1-.903-.968 12.117 12.117 0 0 0-.532-.677c-.774-.887-1.823-1.371-2.936-1.936z" style="fill:var(--color1, #fff)"/>
      <path fill="#fff" d="M12.504 27.61c-1 .065-2.774-.468-3.452-.806-.484-.242-1.016-.403-1.581-.549-.984-.258-2.097-.468-2.936-.5.403.387.79.774 1.323 1.194 1.21.887 2.468 1.355 4.113 1.113.629-.081 1.984-.178 2.532-.452zM26.12 4.98c-1.371-.871-2.807-2.21-5.226-3.113 1.774.016 4.581 1.129 5.226 3.113zM24.538 5.254c.29.129.5.21.742.274.452.113.823.145 1.21.274.307.097.564.258.774.436.193.161.339.323.451.484.226.323.419.839.419 1.226a3.741 3.741 0 0 0-1.338-.904 4.62 4.62 0 0 1-.565-.258c-.742-.387-1.177-.936-1.694-1.532z" style="fill:var(--color1, #fff)"/>
      <path fill="#fff" d="M28.152 7.964c0-.565-.516-1.516-.823-1.887a4.12 4.12 0 0 1-.516-.855c-.258-.532-.484-1.145-.549-1.613.323.194.661.403 1.016.677.774.629 1.21 1.306 1.097 2.226-.032.371-.032 1.145-.226 1.452zM26.783 8.06c.258.177.451.29.661.387.419.177.774.274 1.113.468.274.145.484.339.661.565.161.194.258.371.339.548.145.355.226.903.129 1.274a3.51 3.51 0 0 0-.403-.532 2.96 2.96 0 0 0-.694-.581 13.545 13.545 0 0 1-.5-.339c-.629-.5-.935-1.129-1.306-1.79z" style="fill:var(--color1, #fff)"/>
      <path fill="#fff" d="M29.703 11.319c.129-.548-.161-1.581-.387-1.984a3.612 3.612 0 0 1-.306-.919c-.129-.565-.21-1.194-.177-1.661.274.258.548.5.855.839.613.742.887 1.484.581 2.371-.113.339-.306 1.081-.565 1.355zM28.119 10.867c.21.258.371.435.565.597.371.306.726.5 1.016.79.242.242.387.5.5.774.097.258.145.468.161.677a2.72 2.72 0 0 1-.323 1.403 5.528 5.528 0 0 0-.226-.677 3.468 3.468 0 0 0-.532-.806c-.145-.177-.29-.339-.403-.5-.516-.71-.613-1.452-.758-2.258z" style="fill:var(--color1, #fff)"/>
      <path fill="#fff" d="M30.039 15.126c.339-.548.403-1.726.323-2.21a4.74 4.74 0 0 1 0-1.065c.065-.645.226-1.339.435-1.823.194.339.403.677.597 1.113.387.968.403 1.823-.258 2.678-.258.339-.726 1.081-1.097 1.307zM28.75 14.173c.145.29.258.5.419.694.29.371.597.629.823.984.177.29.274.565.306.871.032.274.032.5-.016.71-.081.436-.339 1-.678 1.339a3.34 3.34 0 0 0-.387-1.629 5.972 5.972 0 0 1-.274-.581c-.339-.79-.242-1.548-.193-2.387z" style="fill:var(--color1, #fff)"/>
      <path fill="#fff" d="M29.605 18.787c.484-.484.839-1.645.871-2.161.032-.355.145-.71.274-1.065.226-.629.549-1.29.887-1.742.113.387.242.758.323 1.226.145 1.032-.049 1.887-.936 2.629-.339.306-1 .952-1.419 1.113zM28.688 17.335c.032.339.081.581.161.839.161.468.371.823.484 1.242a2.02 2.02 0 0 1-.016.984c-.065.29-.161.516-.274.726-.242.419-.726.936-1.194 1.194.097-.29.161-.516.21-.758a3.062 3.062 0 0 0 0-1.016c-.032-.242-.065-.452-.065-.661-.065-.952.323-1.71.694-2.549z" style="fill:var(--color1, #fff)"/>
      <path fill="#fff" d="M27.832 22.319c.678-.371 1.484-1.468 1.71-1.984.161-.355.419-.694.677-1.016.468-.581 1.049-1.177 1.565-1.548a11.1 11.1 0 0 1-.129 1.355c-.242 1.097-.758 1.936-1.935 2.452-.468.194-1.387.694-1.887.742zM27.412 20.481a4.526 4.526 0 0 0-.161.936c-.016.548.081.984.016 1.468a2.325 2.325 0 0 1-.403 1.032c-.193.29-.371.5-.581.694-.436.371-1.161.79-1.758.919.226-.274.387-.5.516-.742.21-.371.323-.726.403-1.081.065-.274.129-.5.194-.726.339-1.016 1.048-1.71 1.774-2.5z" style="fill:var(--color1, #fff)"/>
      <path fill="#fff" d="M24.508 25.545c.871-.194 2.161-1.129 2.613-1.597.323-.339.71-.613 1.129-.887.726-.484 1.597-.952 2.29-1.194-.194.452-.387.887-.677 1.403-.694 1.097-1.581 1.839-3.049 2.048-.565.065-1.758.323-2.307.226zM24.767 23.432a3.832 3.832 0 0 0-.565.887c-.242.548-.355 1-.629 1.468-.226.371-.532.661-.887.919a4.86 4.86 0 0 1-.919.516c-.613.242-1.565.436-2.242.387.355-.21.629-.387.871-.597a4.21 4.21 0 0 0 .903-.968c.177-.242.355-.468.532-.677.774-.887 1.823-1.371 2.936-1.936z" style="fill:var(--color1, #fff)"/>
      <path fill="#fff" d="M19.492 27.61c1 .065 2.774-.468 3.452-.806.484-.242 1.016-.403 1.581-.549.984-.258 2.097-.468 2.936-.5-.403.387-.79.774-1.323 1.194-1.21.887-2.468 1.355-4.113 1.113-.629-.081-1.984-.178-2.532-.452zM10.667 11.246v6.274c0 .279.137.54.367.698l4.453 3.056a.846.846 0 0 0 .953.003l4.522-3.06a.845.845 0 0 0 .372-.701v-6.27a.846.846 0 0 0-.846-.846h-8.974a.846.846 0 0 0-.846.846z" style="fill:var(--color1, #fff)"/>
      <path fill="#010c07" d="M18.519 15.987a.283.283 0 0 1-.27.199h-4.425a.283.283 0 0 1-.27-.199l-.529-1.711a.282.282 0 0 1 .364-.349l.95.339c.11.039.234.006.31-.083l1.172-1.379a.282.282 0 0 1 .43 0l1.172 1.379a.284.284 0 0 0 .31.083l.95-.339a.282.282 0 0 1 .364.349l-.529 1.711zM13.616 17.061c0-.156.126-.282.282-.282h4.277c.156 0 .282.126.282.282v.029a.282.282 0 0 1-.282.282h-4.277a.282.282 0 0 1-.282-.282v-.029z" style="fill:var(--color4, #010c07)"/>
    </symbol>
    <symbol id="icon-label_stars" viewBox="0 0 32 32">
      <path fill="#fff" d="M11.524 27.529s6.549.032 8.71 1.839l-1.129.403s-3.065-2.178-8.404-1.774c.274-.242.823-.468.823-.468z" style="fill:var(--color1, #fff)"/>
      <path fill="#fff" d="M20.735 27.529s-6.549.032-8.71 1.839l1.129.403s3.065-2.178 8.404-1.774c-.274-.242-.823-.468-.823-.468zM6.008 4.98c1.371-.887 2.79-2.21 5.226-3.113-1.774.016-4.581 1.129-5.226 3.113zM7.589 5.254c-.29.129-.5.21-.742.274-.452.113-.823.145-1.21.274a2.245 2.245 0 0 0-.774.436 2.47 2.47 0 0 0-.452.484c-.226.323-.419.839-.419 1.226.177-.177.339-.323.516-.452.274-.194.532-.339.806-.452a4.62 4.62 0 0 0 .565-.258c.758-.387 1.194-.936 1.71-1.532z" style="fill:var(--color1, #fff)"/>
      <path fill="#fff" d="M3.976 7.964c0-.565.516-1.516.823-1.887a4.12 4.12 0 0 0 .516-.855c.258-.532.484-1.145.548-1.613-.323.194-.661.403-1.016.677-.774.629-1.21 1.306-1.097 2.226.032.371.032 1.145.226 1.452zM5.347 8.06c-.258.177-.452.29-.661.387-.419.177-.774.274-1.113.468a2.046 2.046 0 0 0-.661.565 2.343 2.343 0 0 0-.339.548c-.145.355-.226.903-.129 1.274a3.51 3.51 0 0 1 .403-.532 2.98 2.98 0 0 1 .694-.581c.177-.113.339-.226.5-.339.629-.5.936-1.129 1.306-1.79z" style="fill:var(--color1, #fff)"/>
      <path fill="#fff" d="M2.428 11.319c-.129-.548.161-1.581.387-1.984.145-.29.242-.597.306-.919.129-.565.21-1.194.177-1.661-.274.258-.548.5-.855.839-.613.742-.887 1.484-.581 2.371.113.339.306 1.081.565 1.355zM4.008 10.867a4.13 4.13 0 0 1-.565.597c-.371.306-.726.5-1.016.79-.242.242-.387.5-.5.774a2.393 2.393 0 0 0-.161.677 2.72 2.72 0 0 0 .323 1.403c.065-.258.145-.468.226-.677a3.5 3.5 0 0 1 .532-.806c.145-.177.29-.339.403-.5.516-.71.613-1.452.758-2.258z" style="fill:var(--color1, #fff)"/>
      <path fill="#fff" d="M2.088 15.126c-.339-.548-.403-1.726-.323-2.21a4.74 4.74 0 0 0 0-1.065c-.065-.645-.226-1.339-.435-1.823-.194.339-.403.677-.597 1.113-.387.968-.403 1.823.258 2.678.258.339.726 1.081 1.097 1.307zM3.379 14.173c-.145.29-.258.5-.419.694-.29.371-.597.629-.823.984-.177.29-.274.565-.306.871-.032.274-.032.5.016.71.081.436.339 1 .677 1.339a3.34 3.34 0 0 1 .388-1.629c.113-.21.194-.387.274-.581.339-.79.242-1.548.194-2.387z" style="fill:var(--color1, #fff)"/>
      <path fill="#fff" d="M2.525 18.787c-.484-.484-.839-1.645-.871-2.161-.032-.355-.145-.71-.274-1.065-.226-.629-.548-1.29-.887-1.742-.113.387-.242.758-.323 1.226-.129 1.048.065 1.903.936 2.645.339.29 1 .936 1.419 1.097zM3.445 17.335a3.895 3.895 0 0 1-.161.839c-.161.468-.371.823-.484 1.242a2.02 2.02 0 0 0 .016.984c.064.29.161.516.274.726.242.419.726.936 1.194 1.194a6.153 6.153 0 0 1-.21-.758 3.09 3.09 0 0 1 0-1.016c.032-.242.065-.452.065-.661.064-.952-.323-1.71-.694-2.549z" style="fill:var(--color1, #fff)"/>
      <path fill="#fff" d="M4.299 22.319c-.677-.371-1.484-1.468-1.71-1.984-.161-.355-.419-.694-.677-1.016-.468-.581-1.048-1.177-1.565-1.548.016.419.048.839.129 1.355.242 1.097.758 1.936 1.936 2.452.468.194 1.387.694 1.887.742zM4.718 20.481c.097.371.145.645.161.936.016.548-.081.984-.016 1.468.048.387.194.726.403 1.032.194.29.371.5.581.694.436.371 1.161.79 1.758.919a4.428 4.428 0 0 1-.516-.742 3.833 3.833 0 0 1-.403-1.081 15.16 15.16 0 0 0-.194-.726c-.339-1.016-1.048-1.71-1.774-2.5z" style="fill:var(--color1, #fff)"/>
      <path fill="#fff" d="M7.621 25.545c-.871-.194-2.161-1.129-2.613-1.597-.323-.339-.71-.613-1.129-.887-.726-.484-1.597-.952-2.29-1.194.194.452.387.887.677 1.403.694 1.097 1.581 1.839 3.049 2.048.565.065 1.758.323 2.307.226zM7.364 23.432c.274.339.436.597.565.887.242.548.355 1 .629 1.468.226.371.532.661.887.919.323.226.613.387.919.516.613.242 1.565.436 2.242.387-.355-.21-.629-.387-.871-.597a4.21 4.21 0 0 1-.903-.968 12.117 12.117 0 0 0-.532-.677c-.774-.887-1.823-1.371-2.936-1.936z" style="fill:var(--color1, #fff)"/>
      <path fill="#fff" d="M12.637 27.61c-1 .065-2.774-.468-3.452-.806-.484-.242-1.016-.403-1.581-.549-.984-.258-2.097-.468-2.936-.5.403.387.79.774 1.323 1.194 1.21.887 2.468 1.355 4.113 1.113.629-.081 1.984-.178 2.532-.452zM26.254 4.98c-1.371-.871-2.807-2.21-5.226-3.113 1.774.016 4.581 1.129 5.226 3.113zM24.672 5.254c.29.129.5.21.742.274.452.113.823.145 1.21.274.306.097.564.258.774.436.193.161.339.323.451.484.226.323.419.839.419 1.226a3.725 3.725 0 0 0-1.339-.904 4.536 4.536 0 0 1-.564-.258c-.742-.387-1.177-.936-1.694-1.532z" style="fill:var(--color1, #fff)"/>
      <path fill="#fff" d="M28.285 7.964c0-.565-.516-1.516-.823-1.887a4.12 4.12 0 0 1-.516-.855c-.258-.532-.484-1.145-.549-1.613.323.194.661.403 1.016.677.774.629 1.21 1.306 1.097 2.226-.032.371-.032 1.145-.226 1.452zM26.917 8.06c.258.177.451.29.661.387.419.177.774.274 1.113.468.274.145.484.339.661.565.161.194.258.371.339.548.145.355.226.903.129 1.274a3.51 3.51 0 0 0-.403-.532 2.96 2.96 0 0 0-.694-.581 13.545 13.545 0 0 1-.5-.339c-.629-.5-.935-1.129-1.306-1.79z" style="fill:var(--color1, #fff)"/>
      <path fill="#fff" d="M29.836 11.319c.129-.548-.161-1.581-.387-1.984a3.612 3.612 0 0 1-.306-.919c-.129-.565-.21-1.194-.177-1.661.274.258.548.5.855.839.613.742.887 1.484.581 2.371-.113.339-.306 1.081-.565 1.355zM28.253 10.867c.21.258.371.435.565.597.371.306.726.5 1.016.79.242.242.387.5.5.774.097.258.145.468.161.677a2.72 2.72 0 0 1-.323 1.403 5.528 5.528 0 0 0-.226-.677 3.468 3.468 0 0 0-.532-.806c-.145-.177-.29-.339-.403-.5-.516-.71-.613-1.452-.758-2.258z" style="fill:var(--color1, #fff)"/>
      <path fill="#fff" d="M30.172 15.126c.339-.548.403-1.726.323-2.21a4.74 4.74 0 0 1 0-1.065c.065-.645.226-1.339.435-1.823.194.339.403.677.597 1.113.387.968.403 1.823-.258 2.678-.258.339-.726 1.081-1.097 1.307zM28.883 14.173c.145.29.258.5.419.694.29.371.597.629.823.984.177.29.274.565.306.871.032.274.032.5-.016.71-.081.436-.339 1-.678 1.339a3.34 3.34 0 0 0-.387-1.629 5.972 5.972 0 0 1-.274-.581c-.339-.79-.242-1.548-.193-2.387z" style="fill:var(--color1, #fff)"/>
      <path fill="#fff" d="M29.738 18.787c.484-.484.839-1.645.871-2.161.032-.355.145-.71.274-1.065.226-.629.549-1.29.887-1.742.113.387.242.758.323 1.226.145 1.032-.049 1.887-.936 2.629-.339.306-1 .952-1.419 1.113zM28.821 17.335c.032.339.081.581.161.839.161.468.371.823.484 1.242a2.02 2.02 0 0 1-.016.984c-.065.29-.161.516-.274.726-.242.419-.726.936-1.194 1.194.097-.29.161-.516.21-.758a3.062 3.062 0 0 0 0-1.016c-.032-.242-.065-.452-.065-.661-.065-.952.323-1.71.694-2.549z" style="fill:var(--color1, #fff)"/>
      <path fill="#fff" d="M27.966 22.319c.678-.371 1.484-1.468 1.71-1.984.161-.355.419-.694.677-1.016.468-.581 1.049-1.177 1.565-1.548a11.1 11.1 0 0 1-.129 1.355c-.242 1.097-.758 1.936-1.935 2.452-.468.194-1.387.694-1.887.742zM27.545 20.481a4.526 4.526 0 0 0-.161.936c-.016.548.081.984.016 1.468a2.325 2.325 0 0 1-.403 1.032c-.193.29-.371.5-.581.694-.436.371-1.161.79-1.758.919.226-.274.387-.5.516-.742.21-.371.323-.726.403-1.081.065-.274.129-.5.194-.726.339-1.016 1.048-1.71 1.774-2.5z" style="fill:var(--color1, #fff)"/>
      <path fill="#fff" d="M24.641 25.545c.871-.194 2.161-1.129 2.613-1.597.323-.339.71-.613 1.129-.887.726-.484 1.597-.952 2.29-1.194-.194.452-.387.887-.677 1.403-.694 1.097-1.581 1.839-3.049 2.048-.565.065-1.758.323-2.307.226zM24.901 23.432a3.832 3.832 0 0 0-.565.887c-.242.548-.355 1-.629 1.468-.226.371-.532.661-.887.919a4.86 4.86 0 0 1-.919.516c-.613.242-1.565.436-2.242.387.355-.21.629-.387.871-.597a4.21 4.21 0 0 0 .903-.968c.177-.242.355-.468.532-.677.774-.887 1.823-1.371 2.936-1.936z" style="fill:var(--color1, #fff)"/>
      <path fill="#fff" d="M19.625 27.61c1 .065 2.774-.468 3.452-.806.484-.242 1.016-.403 1.581-.549.984-.258 2.097-.468 2.936-.5-.403.387-.79.774-1.323 1.194-1.21.887-2.468 1.355-4.113 1.113-.629-.081-1.984-.178-2.532-.452zM14.598 21.867a.996.996 0 0 1-.38-.072.924.924 0 0 1-.304-.202.765.765 0 0 1-.182-.298l.43-.099a.357.357 0 0 0 .094.16.505.505 0 0 0 .357.141c.086 0 .165-.018.237-.054s.128-.085.17-.146a.357.357 0 0 0-.002-.408.44.44 0 0 0-.17-.146.517.517 0 0 0-.235-.054.555.555 0 0 0-.41.15l-.382-.106.082-1.219h1.449v.362h-1.21l.167-.136-.059.848-.082-.086c.069-.054.149-.095.241-.122s.18-.04.265-.04c.167 0 .314.033.443.099.13.065.231.154.304.267a.69.69 0 0 1-.019.778.918.918 0 0 1-.343.278 1.038 1.038 0 0 1-.463.104zM15.941 21.819v-.395h.458v.395h-.458zM17.84 21.867c-.189 0-.356-.035-.5-.104a.823.823 0 0 1-.339-.293.784.784 0 0 1-.12-.432v-.742c0-.163.04-.307.12-.432a.812.812 0 0 1 .339-.291c.144-.07.311-.106.5-.106s.355.035.498.106a.769.769 0 0 1 .461.723v.742a.777.777 0 0 1-.461.725 1.133 1.133 0 0 1-.498.104zm0-.367a.557.557 0 0 0 .256-.058.482.482 0 0 0 .182-.157.391.391 0 0 0 .067-.221v-.798a.38.38 0 0 0-.067-.221.466.466 0 0 0-.182-.157c-.077-.039-.162-.059-.256-.059s-.179.02-.256.059a.465.465 0 0 0-.182.157.387.387 0 0 0-.067.221v.798c0 .081.022.155.067.221a.483.483 0 0 0 .182.157.57.57 0 0 0 .256.058zM20.034 15.29v-.89h-7.801v.89H10.8l.527 1.288-.527 1.288h2.637v-.89h5.392v.89h2.637l-.527-1.288.527-1.288h-1.433zM14.872 11.326a.338.338 0 0 1 .099.301l-.181 1.042a.343.343 0 0 0 .5.358l.949-.492a.35.35 0 0 1 .321 0l.949.492c.253.131.549-.081.5-.358l-.181-1.041a.338.338 0 0 1 .099-.301l.768-.738a.339.339 0 0 0-.191-.58l-1.061-.152a.348.348 0 0 1-.26-.186l-.474-.948a.347.347 0 0 0-.619 0l-.474.948c-.05.1-.147.17-.26.186l-1.061.152a.339.339 0 0 0-.191.58l.767.738z" style="fill:var(--color1, #fff)"/>
      <path fill="#fff" d="m18.336 11.73.512.477c.054.05.079.123.066.195l-.121.674c-.032.18.165.317.334.232l.633-.318a.237.237 0 0 1 .214 0l.633.318c.169.085.366-.052.334-.232l-.121-.674a.215.215 0 0 1 .066-.195l.512-.477c.136-.127.061-.349-.128-.375l-.707-.098a.227.227 0 0 1-.173-.12l-.316-.613a.234.234 0 0 0-.412 0l-.316.613a.227.227 0 0 1-.173.12l-.707.098c-.189.026-.264.248-.128.375zM11.43 12.207c.059.05.086.123.072.195l-.131.674c-.035.18.179.317.361.232l.685-.318a.277.277 0 0 1 .232 0l.685.318c.183.085.396-.052.361-.232l-.131-.674a.205.205 0 0 1 .072-.195l.555-.477c.148-.127.066-.349-.138-.375l-.766-.098a.25.25 0 0 1-.188-.12l-.343-.613c-.091-.164-.355-.164-.447 0l-.343.613a.246.246 0 0 1-.188.12l-.766.098c-.204.026-.286.248-.138.375l.554.477z" style="fill:var(--color1, #fff)"/>
    </symbol>
    <symbol id="icon-label_shop" viewBox="0 0 32 32">
      <path fill="#fff" d="M11.524 27.529s6.549.032 8.71 1.839l-1.129.403s-3.065-2.178-8.404-1.774c.274-.242.823-.468.823-.468z" style="fill:var(--color1, #fff)"/>
      <path fill="#fff" d="M20.735 27.529s-6.549.032-8.71 1.839l1.129.403s3.065-2.178 8.404-1.774c-.274-.242-.823-.468-.823-.468zM6.008 4.98c1.371-.887 2.79-2.21 5.226-3.113-1.774.016-4.581 1.129-5.226 3.113zM7.589 5.254c-.29.129-.5.21-.742.274-.452.113-.823.145-1.21.274a2.245 2.245 0 0 0-.774.436 2.47 2.47 0 0 0-.452.484c-.226.323-.419.839-.419 1.226.177-.177.339-.323.516-.452.274-.194.532-.339.806-.452a4.62 4.62 0 0 0 .565-.258c.758-.387 1.194-.936 1.71-1.532z" style="fill:var(--color1, #fff)"/>
      <path fill="#fff" d="M3.976 7.964c0-.565.516-1.516.823-1.887a4.12 4.12 0 0 0 .516-.855c.258-.532.484-1.145.548-1.613-.323.194-.661.403-1.016.677-.774.629-1.21 1.306-1.097 2.226.032.371.032 1.145.226 1.452zM5.347 8.06c-.258.177-.452.29-.661.387-.419.177-.774.274-1.113.468a2.046 2.046 0 0 0-.661.565 2.343 2.343 0 0 0-.339.548c-.145.355-.226.903-.129 1.274a3.51 3.51 0 0 1 .403-.532 2.98 2.98 0 0 1 .694-.581c.177-.113.339-.226.5-.339.629-.5.936-1.129 1.306-1.79z" style="fill:var(--color1, #fff)"/>
      <path fill="#fff" d="M2.428 11.319c-.129-.548.161-1.581.387-1.984.145-.29.242-.597.306-.919.129-.565.21-1.194.177-1.661-.274.258-.548.5-.855.839-.613.742-.887 1.484-.581 2.371.113.339.306 1.081.565 1.355zM4.008 10.867a4.13 4.13 0 0 1-.565.597c-.371.306-.726.5-1.016.79-.242.242-.387.5-.5.774a2.393 2.393 0 0 0-.161.677 2.72 2.72 0 0 0 .323 1.403c.065-.258.145-.468.226-.677a3.5 3.5 0 0 1 .532-.806c.145-.177.29-.339.403-.5.516-.71.613-1.452.758-2.258z" style="fill:var(--color1, #fff)"/>
      <path fill="#fff" d="M2.088 15.126c-.339-.548-.403-1.726-.323-2.21a4.74 4.74 0 0 0 0-1.065c-.065-.645-.226-1.339-.435-1.823-.194.339-.403.677-.597 1.113-.387.968-.403 1.823.258 2.678.258.339.726 1.081 1.097 1.307zM3.379 14.173c-.145.29-.258.5-.419.694-.29.371-.597.629-.823.984-.177.29-.274.565-.306.871-.032.274-.032.5.016.71.081.436.339 1 .677 1.339a3.34 3.34 0 0 1 .388-1.629c.113-.21.194-.387.274-.581.339-.79.242-1.548.194-2.387z" style="fill:var(--color1, #fff)"/>
      <path fill="#fff" d="M2.525 18.787c-.484-.484-.839-1.645-.871-2.161-.032-.355-.145-.71-.274-1.065-.226-.629-.548-1.29-.887-1.742-.113.387-.242.758-.323 1.226-.129 1.048.065 1.903.936 2.645.339.29 1 .936 1.419 1.097zM3.445 17.335a3.895 3.895 0 0 1-.161.839c-.161.468-.371.823-.484 1.242a2.02 2.02 0 0 0 .016.984c.065.29.161.516.274.726.242.419.726.936 1.194 1.194a6.153 6.153 0 0 1-.21-.758 3.062 3.062 0 0 1 0-1.016c.032-.242.064-.452.064-.661.065-.952-.323-1.71-.694-2.549z" style="fill:var(--color1, #fff)"/>
      <path fill="#fff" d="M4.299 22.319c-.677-.371-1.484-1.468-1.71-1.984-.161-.355-.419-.694-.677-1.016-.468-.581-1.048-1.177-1.565-1.548.016.419.048.839.129 1.355.242 1.097.758 1.936 1.936 2.452.468.194 1.387.694 1.887.742zM4.718 20.481c.097.371.145.645.161.936.016.548-.081.984-.016 1.468.048.387.194.726.403 1.032.194.29.371.5.581.694.436.371 1.161.79 1.758.919a4.428 4.428 0 0 1-.516-.742 3.833 3.833 0 0 1-.403-1.081 15.16 15.16 0 0 0-.194-.726c-.339-1.016-1.048-1.71-1.774-2.5z" style="fill:var(--color1, #fff)"/>
      <path fill="#fff" d="M7.621 25.545c-.871-.194-2.161-1.129-2.613-1.597-.323-.339-.71-.613-1.129-.887-.726-.484-1.597-.952-2.29-1.194.194.452.387.887.677 1.403.694 1.097 1.581 1.839 3.049 2.048.565.065 1.758.323 2.307.226zM7.364 23.432c.274.339.436.597.565.887.242.548.355 1 .629 1.468.226.371.532.661.887.919.323.226.613.387.919.516.613.242 1.565.436 2.242.387-.355-.21-.629-.387-.871-.597a4.21 4.21 0 0 1-.903-.968 12.117 12.117 0 0 0-.532-.677c-.774-.887-1.823-1.371-2.936-1.936z" style="fill:var(--color1, #fff)"/>
      <path fill="#fff" d="M12.637 27.61c-1 .065-2.774-.468-3.452-.806-.484-.242-1.016-.403-1.581-.549-.984-.258-2.097-.468-2.936-.5.403.387.79.774 1.323 1.194 1.21.887 2.468 1.355 4.113 1.113.629-.081 1.984-.178 2.532-.452zM26.254 4.98c-1.371-.871-2.807-2.21-5.226-3.113 1.774.016 4.581 1.129 5.226 3.113zM24.672 5.254c.29.129.5.21.742.274.452.113.823.145 1.21.274.306.097.564.258.774.436.193.161.339.323.451.484.226.323.419.839.419 1.226a3.725 3.725 0 0 0-1.339-.904 4.536 4.536 0 0 1-.564-.258c-.742-.387-1.177-.936-1.694-1.532z" style="fill:var(--color1, #fff)"/>
      <path fill="#fff" d="M28.285 7.964c0-.565-.516-1.516-.823-1.887a4.12 4.12 0 0 1-.516-.855c-.258-.532-.484-1.145-.549-1.613.323.194.661.403 1.016.677.774.629 1.21 1.306 1.097 2.226-.032.371-.032 1.145-.226 1.452zM26.917 8.06c.258.177.451.29.661.387.419.177.774.274 1.113.468.274.145.484.339.661.565.161.194.258.371.339.548.145.355.226.903.129 1.274a3.51 3.51 0 0 0-.403-.532 2.96 2.96 0 0 0-.694-.581 13.545 13.545 0 0 1-.5-.339c-.629-.5-.935-1.129-1.306-1.79z" style="fill:var(--color1, #fff)"/>
      <path fill="#fff" d="M29.836 11.319c.129-.548-.161-1.581-.387-1.984a3.612 3.612 0 0 1-.306-.919c-.129-.565-.21-1.194-.177-1.661.274.258.548.5.855.839.613.742.887 1.484.581 2.371-.113.339-.306 1.081-.565 1.355zM28.253 10.867c.21.258.371.435.565.597.371.306.726.5 1.016.79.242.242.387.5.5.774.097.258.145.468.161.677a2.72 2.72 0 0 1-.323 1.403 5.528 5.528 0 0 0-.226-.677 3.468 3.468 0 0 0-.532-.806c-.145-.177-.29-.339-.403-.5-.516-.71-.613-1.452-.758-2.258z" style="fill:var(--color1, #fff)"/>
      <path fill="#fff" d="M30.172 15.126c.339-.548.403-1.726.323-2.21a4.74 4.74 0 0 1 0-1.065c.065-.645.226-1.339.435-1.823.194.339.403.677.597 1.113.387.968.403 1.823-.258 2.678-.258.339-.726 1.081-1.097 1.307zM28.883 14.173c.145.29.258.5.419.694.29.371.597.629.823.984.177.29.274.565.306.871.032.274.032.5-.016.71-.081.436-.339 1-.678 1.339a3.34 3.34 0 0 0-.387-1.629 5.972 5.972 0 0 1-.274-.581c-.339-.79-.242-1.548-.193-2.387z" style="fill:var(--color1, #fff)"/>
      <path fill="#fff" d="M29.738 18.787c.484-.484.839-1.645.871-2.161.032-.355.145-.71.274-1.065.226-.629.549-1.29.887-1.742.113.387.242.758.323 1.226.145 1.032-.049 1.887-.936 2.629-.339.306-1 .952-1.419 1.113zM28.821 17.335c.032.339.081.581.161.839.161.468.371.823.484 1.242a2.02 2.02 0 0 1-.016.984c-.065.29-.161.516-.274.726-.242.419-.726.936-1.194 1.194.097-.29.161-.516.21-.758a3.062 3.062 0 0 0 0-1.016c-.032-.242-.065-.452-.065-.661-.065-.952.323-1.71.694-2.549z" style="fill:var(--color1, #fff)"/>
      <path fill="#fff" d="M27.966 22.319c.678-.371 1.484-1.468 1.71-1.984.161-.355.419-.694.677-1.016.468-.581 1.049-1.177 1.565-1.548a11.1 11.1 0 0 1-.129 1.355c-.242 1.097-.758 1.936-1.935 2.452-.468.194-1.387.694-1.887.742zM27.545 20.481a4.526 4.526 0 0 0-.161.936c-.016.548.081.984.016 1.468a2.325 2.325 0 0 1-.403 1.032c-.193.29-.371.5-.581.694-.436.371-1.161.79-1.758.919.226-.274.387-.5.516-.742.21-.371.323-.726.403-1.081.065-.274.129-.5.194-.726.339-1.016 1.048-1.71 1.774-2.5z" style="fill:var(--color1, #fff)"/>
      <path fill="#fff" d="M24.641 25.545c.871-.194 2.161-1.129 2.613-1.597.323-.339.71-.613 1.129-.887.726-.484 1.597-.952 2.29-1.194-.194.452-.387.887-.677 1.403-.694 1.097-1.581 1.839-3.049 2.048-.565.065-1.758.323-2.307.226zM24.901 23.432a3.832 3.832 0 0 0-.565.887c-.242.548-.355 1-.629 1.468-.226.371-.532.661-.887.919a4.86 4.86 0 0 1-.919.516c-.613.242-1.565.436-2.242.387.355-.21.629-.387.871-.597a4.21 4.21 0 0 0 .903-.968c.177-.242.355-.468.532-.677.774-.887 1.823-1.371 2.936-1.936z" style="fill:var(--color1, #fff)"/>
      <path fill="#fff" d="M19.625 27.61c1 .065 2.774-.468 3.452-.806.484-.242 1.016-.403 1.581-.549.984-.258 2.097-.468 2.936-.5-.403.387-.79.774-1.323 1.194-1.21.887-2.468 1.355-4.113 1.113-.629-.081-1.984-.178-2.532-.452zM19.942 10.69c-.008-.057-.059-.088-.101-.091s-.859-.016-.859-.016-.684-.648-.751-.713-.199-.046-.251-.031l-.343.104a2.328 2.328 0 0 0-.164-.394c-.243-.453-.6-.693-1.03-.693h-.001c-.03 0-.06.003-.089.005-.013-.015-.025-.03-.039-.044a.915.915 0 0 0-.716-.283c-.556.016-1.11.407-1.559 1.103-.316.49-.556 1.105-.625 1.581l-1.095.331c-.322.099-.333.109-.375.405-.032.224-.875 6.587-.875 6.587l7.069 1.192 3.064-.743-1.258-8.3zm-6.134.409c.191-.872.94-2.18 1.799-2.204a.572.572 0 0 1 .335.086c-.15.076-.296.185-.432.328-.353.37-.624.944-.732 1.497l-.969.293zm2.556-.772-1.18.356c.114-.426.33-.85.596-1.128a1.2 1.2 0 0 1 .401-.285c.154.313.187.757.184 1.056zm.37-.112c-.004-.275-.038-.657-.169-.987.422.078.63.544.718.822a224 224 0 0 0-.549.166z" style="fill:var(--color1, #fff)"/>
      <path fill="#fff" d="M19.843 10.599c-.042-.003-.859-.016-.859-.016s-.684-.648-.751-.713a.17.17 0 0 0-.095-.043v9.906l3.064-.743-1.258-8.3c-.008-.056-.059-.088-.101-.091z" style="fill:var(--color1, #fff)"/>
      <path fill="#010c07" d="m16.438 12.135-.356 1.299s-.397-.176-.868-.147c-.69.042-.697.467-.69.573.038.581 1.604.708 1.692 2.068.069 1.07-.582 1.802-1.52 1.86-1.126.069-1.746-.579-1.746-.579l.239-.99s.624.459 1.123.428a.434.434 0 0 0 .431-.462c-.049-.758-1.324-.713-1.405-1.958-.068-1.048.637-2.109 2.194-2.205.6-.037.907.112.907.112z" style="fill:var(--color4, #010c07)"/>
    </symbol>
    <symbol id="icon-label_up" viewBox="0 0 32 32">
      <path fill="#fff" d="M11.524 27.529s6.549.032 8.71 1.839l-1.129.403s-3.065-2.178-8.404-1.774c.274-.242.823-.468.823-.468z" style="fill:var(--color1, #fff)"/>
      <path fill="#fff" d="M20.735 27.529s-6.549.032-8.71 1.839l1.129.403s3.065-2.178 8.404-1.774c-.274-.242-.823-.468-.823-.468zM6.008 4.98c1.371-.887 2.79-2.21 5.226-3.113-1.774.016-4.581 1.129-5.226 3.113zM7.589 5.254c-.29.129-.5.21-.742.274-.452.113-.823.145-1.21.274a2.245 2.245 0 0 0-.774.436 2.47 2.47 0 0 0-.452.484c-.226.323-.419.839-.419 1.226.177-.177.339-.323.516-.452.274-.194.532-.339.806-.452a4.62 4.62 0 0 0 .565-.258c.758-.387 1.194-.936 1.71-1.532z" style="fill:var(--color1, #fff)"/>
      <path fill="#fff" d="M3.976 7.964c0-.565.516-1.516.823-1.887a4.12 4.12 0 0 0 .516-.855c.258-.532.484-1.145.548-1.613-.323.194-.661.403-1.016.677-.774.629-1.21 1.306-1.097 2.226.032.371.032 1.145.226 1.452zM5.347 8.06c-.258.177-.452.29-.661.387-.419.177-.774.274-1.113.468a2.046 2.046 0 0 0-.661.565 2.343 2.343 0 0 0-.339.548c-.145.355-.226.903-.129 1.274a3.51 3.51 0 0 1 .403-.532 2.98 2.98 0 0 1 .694-.581c.177-.113.339-.226.5-.339.629-.5.936-1.129 1.306-1.79z" style="fill:var(--color1, #fff)"/>
      <path fill="#fff" d="M2.428 11.319c-.129-.548.161-1.581.387-1.984.145-.29.242-.597.306-.919.129-.565.21-1.194.177-1.661-.274.258-.548.5-.855.839-.613.742-.887 1.484-.581 2.371.113.339.306 1.081.565 1.355zM4.008 10.867a4.13 4.13 0 0 1-.565.597c-.371.306-.726.5-1.016.79-.242.242-.387.5-.5.774a2.393 2.393 0 0 0-.161.677 2.72 2.72 0 0 0 .323 1.403c.065-.258.145-.468.226-.677a3.5 3.5 0 0 1 .532-.806c.145-.177.29-.339.403-.5.516-.71.613-1.452.758-2.258z" style="fill:var(--color1, #fff)"/>
      <path fill="#fff" d="M2.088 15.126c-.339-.548-.403-1.726-.323-2.21a4.74 4.74 0 0 0 0-1.065c-.065-.645-.226-1.339-.435-1.823-.194.339-.403.677-.597 1.113-.387.968-.403 1.823.258 2.678.258.339.726 1.081 1.097 1.307zM3.379 14.173c-.145.29-.258.5-.419.694-.29.371-.597.629-.823.984-.177.29-.274.565-.306.871-.032.274-.032.5.016.71.081.436.339 1 .677 1.339a3.34 3.34 0 0 1 .388-1.629c.113-.21.194-.387.274-.581.339-.79.242-1.548.194-2.387z" style="fill:var(--color1, #fff)"/>
      <path fill="#fff" d="M2.525 18.787c-.484-.484-.839-1.645-.871-2.161-.032-.355-.145-.71-.274-1.065-.226-.629-.548-1.29-.887-1.742-.113.387-.242.758-.323 1.226-.129 1.048.065 1.903.936 2.645.339.29 1 .936 1.419 1.097zM3.445 17.335a3.895 3.895 0 0 1-.161.839c-.161.468-.371.823-.484 1.242a2.02 2.02 0 0 0 .016.984c.065.29.161.516.274.726.242.419.726.936 1.194 1.194a6.153 6.153 0 0 1-.21-.758 3.062 3.062 0 0 1 0-1.016c.032-.242.064-.452.064-.661.065-.952-.323-1.71-.694-2.549z" style="fill:var(--color1, #fff)"/>
      <path fill="#fff" d="M4.299 22.319c-.677-.371-1.484-1.468-1.71-1.984-.161-.355-.419-.694-.677-1.016-.468-.581-1.048-1.177-1.565-1.548.016.419.048.839.129 1.355.242 1.097.758 1.936 1.936 2.452.468.194 1.387.694 1.887.742zM4.718 20.481c.097.371.145.645.161.936.016.548-.081.984-.016 1.468.048.387.194.726.403 1.032.194.29.371.5.581.694.436.371 1.161.79 1.758.919a4.428 4.428 0 0 1-.516-.742 3.833 3.833 0 0 1-.403-1.081 15.16 15.16 0 0 0-.194-.726c-.339-1.016-1.048-1.71-1.774-2.5z" style="fill:var(--color1, #fff)"/>
      <path fill="#fff" d="M7.621 25.545c-.871-.194-2.161-1.129-2.613-1.597-.323-.339-.71-.613-1.129-.887-.726-.484-1.597-.952-2.29-1.194.194.452.387.887.677 1.403.694 1.097 1.581 1.839 3.049 2.048.565.065 1.758.323 2.307.226zM7.364 23.432c.274.339.436.597.565.887.242.548.355 1 .629 1.468.226.371.532.661.887.919.323.226.613.387.919.516.613.242 1.565.436 2.242.387-.355-.21-.629-.387-.871-.597a4.21 4.21 0 0 1-.903-.968 12.117 12.117 0 0 0-.532-.677c-.774-.887-1.823-1.371-2.936-1.936z" style="fill:var(--color1, #fff)"/>
      <path fill="#fff" d="M12.637 27.61c-1 .065-2.774-.468-3.452-.806-.484-.242-1.016-.403-1.581-.549-.984-.258-2.097-.468-2.936-.5.403.387.79.774 1.323 1.194 1.21.887 2.468 1.355 4.113 1.113.629-.081 1.984-.178 2.532-.452zM26.254 4.98c-1.371-.871-2.807-2.21-5.226-3.113 1.774.016 4.581 1.129 5.226 3.113zM24.672 5.254c.29.129.5.21.742.274.452.113.823.145 1.21.274.307.097.564.258.774.436.193.161.339.323.451.484.226.323.419.839.419 1.226a3.741 3.741 0 0 0-1.338-.904 4.62 4.62 0 0 1-.565-.258c-.742-.387-1.177-.936-1.694-1.532z" style="fill:var(--color1, #fff)"/>
      <path fill="#fff" d="M28.285 7.964c0-.565-.516-1.516-.823-1.887a4.12 4.12 0 0 1-.516-.855c-.258-.532-.484-1.145-.549-1.613.323.194.661.403 1.016.677.774.629 1.21 1.306 1.097 2.226-.032.371-.032 1.145-.226 1.452zM26.917 8.06c.258.177.451.29.661.387.419.177.774.274 1.113.468.274.145.484.339.661.565.161.194.258.371.339.548.145.355.226.903.129 1.274a3.51 3.51 0 0 0-.403-.532 2.96 2.96 0 0 0-.694-.581 13.545 13.545 0 0 1-.5-.339c-.629-.5-.935-1.129-1.306-1.79z" style="fill:var(--color1, #fff)"/>
      <path fill="#fff" d="M29.836 11.319c.129-.548-.161-1.581-.387-1.984a3.612 3.612 0 0 1-.306-.919c-.129-.565-.21-1.194-.177-1.661.274.258.548.5.855.839.613.742.887 1.484.581 2.371-.113.339-.306 1.081-.565 1.355zM28.253 10.867c.21.258.371.435.565.597.371.306.726.5 1.016.79.242.242.387.5.5.774.097.258.145.468.161.677a2.72 2.72 0 0 1-.323 1.403 5.528 5.528 0 0 0-.226-.677 3.468 3.468 0 0 0-.532-.806c-.145-.177-.29-.339-.403-.5-.516-.71-.613-1.452-.758-2.258z" style="fill:var(--color1, #fff)"/>
      <path fill="#fff" d="M30.172 15.126c.339-.548.403-1.726.323-2.21a4.74 4.74 0 0 1 0-1.065c.065-.645.226-1.339.435-1.823.194.339.403.677.597 1.113.387.968.403 1.823-.258 2.678-.258.339-.726 1.081-1.097 1.307zM28.883 14.173c.145.29.258.5.419.694.29.371.597.629.823.984.177.29.274.565.306.871.032.274.032.5-.016.71-.081.436-.339 1-.678 1.339a3.34 3.34 0 0 0-.387-1.629 5.972 5.972 0 0 1-.274-.581c-.339-.79-.242-1.548-.193-2.387z" style="fill:var(--color1, #fff)"/>
      <path fill="#fff" d="M29.738 18.787c.484-.484.839-1.645.871-2.161.032-.355.145-.71.274-1.065.226-.629.549-1.29.887-1.742.113.387.242.758.323 1.226.145 1.032-.049 1.887-.936 2.629-.339.306-1 .952-1.419 1.113zM28.821 17.335c.032.339.081.581.161.839.161.468.371.823.484 1.242a2.02 2.02 0 0 1-.016.984c-.065.29-.161.516-.274.726-.242.419-.726.936-1.194 1.194.097-.29.161-.516.21-.758a3.062 3.062 0 0 0 0-1.016c-.032-.242-.065-.452-.065-.661-.065-.952.323-1.71.694-2.549z" style="fill:var(--color1, #fff)"/>
      <path fill="#fff" d="M27.966 22.319c.678-.371 1.484-1.468 1.71-1.984.161-.355.419-.694.677-1.016.468-.581 1.049-1.177 1.565-1.548a11.1 11.1 0 0 1-.129 1.355c-.242 1.097-.758 1.936-1.935 2.452-.468.194-1.387.694-1.887.742zM27.545 20.481a4.526 4.526 0 0 0-.161.936c-.016.548.081.984.016 1.468a2.325 2.325 0 0 1-.403 1.032c-.193.29-.371.5-.581.694-.436.371-1.161.79-1.758.919.226-.274.387-.5.516-.742.21-.371.323-.726.403-1.081.065-.274.129-.5.194-.726.339-1.016 1.048-1.71 1.774-2.5z" style="fill:var(--color1, #fff)"/>
      <path fill="#fff" d="M24.641 25.545c.871-.194 2.161-1.129 2.613-1.597.323-.339.71-.613 1.129-.887.726-.484 1.597-.952 2.29-1.194-.194.452-.387.887-.677 1.403-.694 1.097-1.581 1.839-3.049 2.048-.565.065-1.758.323-2.307.226zM24.901 23.432a3.832 3.832 0 0 0-.565.887c-.242.548-.355 1-.629 1.468-.226.371-.532.661-.887.919a4.86 4.86 0 0 1-.919.516c-.613.242-1.565.436-2.242.387.355-.21.629-.387.871-.597a4.21 4.21 0 0 0 .903-.968c.177-.242.355-.468.532-.677.774-.887 1.823-1.371 2.936-1.936z" style="fill:var(--color1, #fff)"/>
      <path fill="#fff" d="M19.625 27.61c1 .065 2.774-.468 3.452-.806.484-.242 1.016-.403 1.581-.549.984-.258 2.097-.468 2.936-.5-.403.387-.79.774-1.323 1.194-1.21.887-2.468 1.355-4.113 1.113-.629-.081-1.984-.178-2.532-.452zM19.487 15.515c-.564 0-1.093-.234-1.573-.616l.117-.538.005-.02c.104-.573.434-1.536 1.451-1.536.762 0 1.382.608 1.382 1.356a1.375 1.375 0 0 1-1.382 1.354zm0-4.083c-1.299 0-2.305.828-2.714 2.189-.625-.92-1.098-2.024-1.375-2.954H14v3.567c0 .703-.585 1.276-1.301 1.276s-1.301-.573-1.301-1.276v-3.567H10v3.567c-.005 1.461 1.207 2.66 2.696 2.66s2.701-1.199 2.701-2.66v-.598a8.498 8.498 0 0 0 1.009 1.615L15.55 19.2h1.431l.62-2.864a3.487 3.487 0 0 0 1.886.556c1.532 0 2.78-1.232 2.78-2.735 0-1.501-1.248-2.725-2.78-2.725z" style="fill:var(--color1, #fff)"/>
    </symbol>
    <symbol id="icon-geo" viewBox="0 0 32 32">
      <path d="M16 1.667c4.964 0 9 4.072 9 9.095 0 1.701-.749 3.812-1.84 5.917-2.401 4.636-6.401 9.305-6.401 9.305a1 1 0 0 1-1.518 0s-4-4.669-6.401-9.305C7.749 14.574 7 12.463 7 10.762c0-5.023 4.036-9.095 9-9.095zM16 7c-2.024 0-3.667 1.643-3.667 3.667s1.643 3.667 3.667 3.667 3.667-1.643 3.667-3.667S18.024 7 16 7z"/>
      <path d="M22.379 23.17c1.084.325 1.977.728 2.595 1.2.4.304.693.601.693.964 0 .213-.121.407-.292.6-.283.319-.703.605-1.223.872-1.837.94-4.808 1.528-8.152 1.528s-6.315-.588-8.152-1.528c-.52-.267-.94-.553-1.223-.872-.171-.193-.292-.387-.292-.6 0-.363.293-.66.693-.964.617-.472 1.511-.875 2.595-1.2a1 1 0 0 0-.576-1.916c-1.651.497-2.933 1.179-3.704 1.932-.677.66-1.008 1.399-1.008 2.148 0 .936.529 1.869 1.605 2.648 1.888 1.365 5.68 2.352 10.061 2.352s8.173-.987 10.061-2.352c1.076-.779 1.605-1.712 1.605-2.648 0-.749-.331-1.488-1.008-2.148-.771-.753-2.053-1.435-3.704-1.932a1 1 0 0 0-.576 1.916z"/>
    </symbol>
   <symbol id="icon-calendar" viewBox="0 0 32 32">
      <path d="M14.807.035A16.135 16.135 0 0 0 6.4 3.206c-.972.721-2.473 2.223-3.194 3.194C1.542 8.634.553 11.055.134 13.876c-.14.972-.14 3.264.006 4.247.506 3.485 1.967 6.499 4.329 8.943.931.96 1.623 1.542 2.659 2.228 2.077 1.385 4.218 2.199 6.749 2.572.977.14 3.27.14 4.247 0 2.828-.413 5.271-1.425 7.529-3.107.884-.663 2.444-2.223 3.107-3.107 1.681-2.257 2.694-4.701 3.107-7.529.07-.518.099-1.071.099-2.124s-.029-1.606-.099-2.124c-.413-2.828-1.425-5.271-3.107-7.529-.663-.89-2.223-2.444-3.113-3.107-2.211-1.652-4.62-2.665-7.319-3.072-.768-.111-2.81-.192-3.52-.134zm-3.014 6.476c.151.07.303.204.407.361.157.239.163.285.18 1.053l.023.803h7.191l.023-.803c.017-.762.029-.82.175-1.041.18-.268.564-.483.867-.483.111 0 .303.052.431.111.489.221.605.512.611 1.501v.704l1.268.023 1.263.017.32.18c.355.204.657.617.721.995.017.122.035.698.035 1.28v1.065H6.678l.023-1.239c.017-1.158.029-1.251.151-1.489.163-.303.361-.495.681-.663.209-.116.343-.128 1.501-.145l1.263-.023v-.704c.006-.989.122-1.28.611-1.501.297-.14.576-.134.884 0zm13.516 12.532c0 5.777.012 5.609-.355 6.051a1.705 1.705 0 0 1-.419.349l-.244.128H7.709l-.244-.128a1.705 1.705 0 0 1-.419-.349c-.367-.442-.355-.273-.355-6.051v-5.254h18.618v5.254z"/>
      <path d="M11.02 16.169c-.343.157-.506.419-.535.849-.017.291 0 .384.116.553.076.111.227.262.337.337.18.122.256.134.64.116.5-.023.669-.116.873-.471.163-.285.145-.826-.035-1.076-.279-.378-.925-.524-1.396-.308zM15.5 16.169c-.337.151-.506.419-.535.826-.047.652.349 1.041 1.047 1.041.431 0 .675-.128.908-.465.186-.273.163-.809-.041-1.1-.175-.239-.535-.413-.879-.413-.145 0-.367.052-.5.111zM19.956 16.186c-.361.186-.524.448-.524.849 0 .355.145.669.396.855.116.087.268.122.593.134.384.017.46.006.64-.116.111-.076.262-.227.337-.337.186-.273.163-.809-.041-1.1-.285-.396-.919-.524-1.402-.285zM10.932 20.497c-.105.07-.256.221-.332.332-.186.273-.163.809.041 1.1.396.559 1.414.529 1.792-.047.186-.279.186-.785 0-1.059-.227-.337-.471-.46-.913-.46-.308 0-.431.029-.588.134zM15.412 20.497c-.105.07-.256.221-.332.332-.116.175-.134.256-.116.564.029.436.151.634.512.815.477.244 1.129.111 1.42-.291.076-.105.122-.279.14-.524.017-.308 0-.39-.116-.564-.233-.343-.471-.465-.919-.465-.308 0-.431.029-.588.134zM19.892 20.497c-.32.215-.46.471-.46.855 0 .413.157.675.524.855.483.244 1.117.116 1.402-.279.204-.291.227-.826.041-1.1-.233-.343-.471-.465-.919-.465-.308 0-.431.029-.588.134z"/>
    </symbol>
    <symbol id="icon-menu" viewBox="0 0 32 32">
      <path d="M29 8H3a2 2 0 0 1 0-4h26a2 2 0 0 1 0 4zM29 28H3a2 2 0 0 1 0-4h26a2 2 0 0 1 0 4zM29 18H3a2 2 0 0 1 0-4h26a2 2 0 0 1 0 4z"/>
    </symbol>
    <symbol id="icon-pen" viewBox="0 0 32 32">
      <path d="M23.986 1.006a3.005 3.005 0 0 0-2.078.872l-2.3 2.299 6.254 6.254 2.3-2.299a3.024 3.024 0 0 0 0-4.251s-2.008-2.003-2.011-2.003a2.981 2.981 0 0 0-2.166-.872zm-5.794 4.588L3.875 19.911a3.017 3.017 0 0 0-.88 2.122v4.006a1.002 1.002 0 0 0 1.007 1.006l4.006-.008a2.998 2.998 0 0 0 2.115-.872l14.325-14.318-6.256-6.254zM3.9 29.048l-.002.002c-1.305.097-1.204 2.042.104 2.003h24.036c1.366.031 1.366-2.034 0-2.003H4.002c-.034-.002-.068-.003-.102-.002z"/>
    </symbol>
    <symbol id="icon-logo" viewBox="0 0 72 32">
      <path d="M14.581 32c-4.734 0-8.347-1.013-10.84-3.04C1.247 26.933 0 24.208 0 20.783c0-.597.079-1.288.238-2.074L4.431-.001h8.339L8.625 18.521c-.095.22-.143.66-.143 1.319.031 1.414.579 2.616 1.644 3.605s2.55 1.485 4.455 1.485c4.003 0 6.48-2.136 7.433-6.409L26.159-.001h8.291l-4.145 18.663c-.953 4.179-2.661 7.446-5.122 9.803S19.186 32 14.581 32zM64.996 31.434H56.8l4.622-20.784-12.675 20.784h-3.621L41.743 10.65l-4.622 20.784h-8.196L35.93 0h11.103l2.764 17.39L60.328 0h11.674l-7.005 31.434z" />
    </symbol>
    <symbol id="icon-upwork" viewBox="0 0 99 32">
      <path d="M64.308 7.697c-4.364.021-7.92 3.702-7.9 8.285s3.611 8.229 7.975 8.209c4.364-.021 7.921-3.702 7.9-8.284s-3.611-8.23-7.977-8.209l.002-.002zm.06 13.134c-1.237.007-2.426-.491-3.306-1.384s-1.367-2.109-1.38-3.379c-.014-1.27.478-2.49 1.349-3.392s2.056-1.402 3.293-1.416c1.237-.014 2.426.491 3.306 1.384s1.367 2.109 1.38 3.379c.013 2.548-2.159 4.795-4.641 4.808zm17.621-9.249c-2.282.011-4.06 1.954-4.049 4.296l.036 7.839-3.473.017-.07-15.579 3.473-.017.012 2.443s1.476-2.45 4.454-2.464l.993-.006.016 3.461-1.392.008zM47.342 8.288l2.63 10.679 2.73-10.705 3.473-.016-4.297 15.609-3.373.016-2.728-10.881-2.63 10.906-3.374.016-4.536-15.557 3.373-.016 3.025 10.677 2.433-10.703 3.274-.024zm46.173 6.906c2.374-1.436 4.05-4.092 4.036-7.147l-3.473.017c.013 2.648-2.063 4.796-4.543 4.806l-.497.002-.055-12.32-3.473.017.107 23.112 3.472-.016-.033-7.33.396-.002c.397-.002.795.2.897.505l4.893 6.797 4.068-.019-5.795-8.422zM27.198 7.877c-3.769.019-6.636 2.578-7.708 6.655-1.799-2.842-3.204-6.093-4.009-8.838l-3.968.019.049 10.792c.004 1.026-.389 2.012-1.092 2.741s-1.661 1.141-2.661 1.147c-1 .004-1.961-.399-2.671-1.121s-1.112-1.704-1.117-2.73L3.971 5.75l-3.97.019.049 10.792c.021 4.478 3.508 8.027 7.776 8.006s7.725-3.601 7.705-8.081l-.009-1.832c.8 1.624 1.8 3.35 2.9 4.873L15.996 31.45l4.067-.019 1.749-8.663c1.592 1.012 3.371 1.613 5.463 1.602 4.366-.022 7.923-3.702 7.9-8.386-.017-2.158-.865-4.222-2.359-5.741s-3.513-2.369-5.617-2.366l-.001.001zm.057 12.319c-1.587.008-3.177-.698-4.472-1.812l.389-1.63v-.093c.292-1.733 1.168-4.69 4.146-4.703 1.05-.002 2.058.422 2.805 1.179s1.172 1.786 1.183 2.864c-.089 2.342-1.965 4.184-4.05 4.194l-.001.001z" />
    </symbol>
    <symbol id="icon-label-up" viewBox="0 0 32 32">
      <path d="M11.394 27.529s6.549.032 8.71 1.839l-1.129.403s-3.065-2.178-8.404-1.774c.274-.242.823-.468.823-.468z"/>
      <path d="M20.603 27.529s-6.549.032-8.71 1.839l1.129.403s3.065-2.178 8.404-1.774c-.274-.242-.823-.468-.823-.468zM5.875 4.98c1.371-.887 2.79-2.21 5.226-3.113-1.774.016-4.581 1.129-5.226 3.113zM7.454 5.254c-.29.129-.5.21-.742.274-.452.113-.823.145-1.21.274a2.245 2.245 0 0 0-.774.436 2.47 2.47 0 0 0-.452.484c-.226.323-.419.839-.419 1.226.177-.177.339-.323.516-.452.274-.194.532-.339.806-.452a4.62 4.62 0 0 0 .565-.258c.758-.387 1.194-.936 1.71-1.532z"/>
      <path d="M3.842 7.964c0-.564.516-1.516.823-1.887a4.12 4.12 0 0 0 .516-.855c.258-.532.484-1.145.548-1.613-.323.194-.661.403-1.016.677-.774.629-1.21 1.306-1.097 2.226.032.371.032 1.145.226 1.452zM5.213 8.06c-.258.177-.452.29-.661.387-.419.177-.774.274-1.113.468a2.046 2.046 0 0 0-.661.565 2.343 2.343 0 0 0-.339.548c-.145.355-.226.903-.129 1.274a3.51 3.51 0 0 1 .403-.532 2.96 2.96 0 0 1 .694-.581c.177-.113.339-.226.5-.339.629-.5.936-1.129 1.306-1.79z"/>
      <path d="M2.298 11.319c-.129-.548.161-1.581.387-1.984.145-.29.242-.597.306-.919.129-.564.21-1.194.177-1.661-.274.258-.548.5-.855.839-.613.742-.887 1.484-.581 2.371.113.339.306 1.081.565 1.355zM3.872 10.867a4.13 4.13 0 0 1-.565.597c-.371.306-.726.5-1.016.79-.242.242-.387.5-.5.774a2.393 2.393 0 0 0-.161.677 2.72 2.72 0 0 0 .323 1.403c.065-.258.145-.468.226-.677a3.5 3.5 0 0 1 .532-.806c.145-.177.29-.339.403-.5.516-.71.613-1.452.758-2.258z"/>
      <path d="M1.955 15.125c-.339-.548-.403-1.726-.323-2.21a4.74 4.74 0 0 0 0-1.065c-.065-.645-.226-1.339-.435-1.823-.194.339-.403.677-.597 1.113-.387.968-.403 1.823.258 2.678.258.339.726 1.081 1.097 1.306zM3.245 14.174c-.145.29-.258.5-.419.694-.29.371-.597.629-.823.984a2.02 2.02 0 0 0-.306.871c-.032.274-.032.5.016.71.081.436.339 1 .677 1.339a3.34 3.34 0 0 1 .388-1.629c.113-.21.194-.387.274-.581.339-.79.242-1.548.194-2.387z"/>
      <path d="M2.391 18.787c-.484-.484-.839-1.645-.871-2.161-.032-.355-.145-.71-.274-1.065-.226-.629-.548-1.29-.887-1.742-.113.387-.242.758-.323 1.226-.129 1.048.065 1.903.936 2.645.339.29 1 .936 1.419 1.097zM3.314 17.335a3.895 3.895 0 0 1-.161.839c-.161.468-.371.823-.484 1.242-.081.339-.064.661.016.984.065.29.161.516.274.726.242.419.726.936 1.194 1.194a6.153 6.153 0 0 1-.21-.758 3.062 3.062 0 0 1 0-1.016c.032-.242.065-.452.065-.661.065-.952-.323-1.71-.694-2.549z"/>
      <path d="M4.166 22.319c-.677-.371-1.484-1.468-1.71-1.984-.161-.355-.419-.694-.677-1.016-.468-.581-1.048-1.177-1.565-1.548.016.419.048.839.129 1.355.242 1.097.758 1.936 1.936 2.452.468.194 1.387.694 1.887.742zM4.585 20.48c.097.371.145.645.161.936.016.548-.081.984-.016 1.468.048.387.194.726.403 1.032.194.29.371.5.581.694.436.371 1.161.79 1.758.919a4.428 4.428 0 0 1-.516-.742 3.833 3.833 0 0 1-.403-1.081c-.064-.274-.129-.5-.194-.726-.339-1.016-1.048-1.71-1.774-2.5z"/>
      <path d="M7.488 25.545c-.871-.194-2.161-1.129-2.613-1.597-.323-.339-.71-.613-1.129-.887-.726-.484-1.597-.952-2.29-1.194.194.452.387.887.677 1.403.694 1.097 1.581 1.839 3.049 2.048.565.064 1.758.323 2.307.226zM7.232 23.432c.274.339.436.597.565.887.242.548.355 1 .629 1.468.226.371.532.661.887.919.323.226.613.387.919.516.613.242 1.565.436 2.242.387-.355-.21-.629-.387-.871-.597a4.21 4.21 0 0 1-.903-.968 12.117 12.117 0 0 0-.532-.677c-.774-.887-1.823-1.371-2.936-1.936z"/>
      <path d="M12.504 27.61c-1 .064-2.774-.468-3.452-.806-.484-.242-1.016-.403-1.581-.548-.984-.258-2.097-.468-2.936-.5.403.387.79.774 1.323 1.194 1.21.887 2.468 1.355 4.113 1.113.629-.081 1.984-.177 2.532-.452zM26.119 4.98c-1.371-.871-2.807-2.21-5.226-3.113 1.774.016 4.581 1.129 5.226 3.113zM24.536 5.254c.29.129.5.21.742.274.452.113.823.145 1.21.274.306.097.564.258.774.436.194.161.339.323.452.484.226.323.419.839.419 1.226a3.725 3.725 0 0 0-1.339-.904 4.62 4.62 0 0 1-.565-.258c-.742-.387-1.177-.936-1.694-1.532z"/>
      <path d="M28.146 7.964c0-.564-.516-1.516-.823-1.887a4.12 4.12 0 0 1-.516-.855c-.258-.532-.484-1.145-.548-1.613.323.194.661.403 1.016.677.774.629 1.21 1.306 1.097 2.226-.032.371-.032 1.145-.226 1.452zM26.786 8.06c.258.177.452.29.661.387.419.177.774.274 1.113.468.274.145.484.339.661.565.161.194.258.371.339.548.145.355.226.903.129 1.274a3.51 3.51 0 0 0-.403-.532 2.98 2.98 0 0 0-.694-.581 13.545 13.545 0 0 1-.5-.339c-.629-.5-.936-1.129-1.306-1.79z"/>
      <path d="M29.708 11.319c.129-.548-.161-1.581-.387-1.984a3.612 3.612 0 0 1-.306-.919c-.129-.564-.21-1.194-.177-1.661.274.258.548.5.855.839.613.742.887 1.484.581 2.371-.113.339-.306 1.081-.565 1.355zM28.116 10.867c.21.258.371.435.565.597.371.306.726.5 1.016.79.242.242.387.5.5.774.097.258.145.468.161.677a2.72 2.72 0 0 1-.323 1.403 5.362 5.362 0 0 0-.226-.677 3.5 3.5 0 0 0-.532-.806c-.145-.177-.29-.339-.403-.5-.516-.71-.613-1.452-.758-2.258z"/>
      <path d="M30.036 15.125c.339-.548.403-1.726.323-2.21a4.74 4.74 0 0 1 0-1.065c.064-.645.226-1.339.436-1.823.194.339.403.677.597 1.113.387.968.403 1.823-.258 2.678-.258.339-.726 1.081-1.097 1.306zM28.747 14.174c.145.29.258.5.419.694.29.371.597.629.823.984.177.29.274.564.306.871.032.274.032.5-.016.71-.081.436-.339 1-.677 1.339a3.288 3.288 0 0 0-.387-1.629 5.972 5.972 0 0 1-.274-.581c-.339-.79-.242-1.548-.194-2.387z"/>
      <path d="M29.603 18.787c.484-.484.839-1.645.871-2.161.032-.355.145-.71.274-1.065.226-.629.548-1.29.887-1.742.113.387.242.758.323 1.226.145 1.032-.048 1.887-.936 2.629-.339.306-1 .952-1.419 1.113zM28.687 17.335c.032.339.081.581.161.839.161.468.371.823.484 1.242.081.339.064.661-.016.984-.064.29-.161.516-.274.726-.242.419-.726.936-1.194 1.194.097-.29.161-.516.21-.758a3.09 3.09 0 0 0 0-1.016c-.032-.242-.064-.452-.064-.661-.064-.952.323-1.71.694-2.549z"/>
      <path d="M27.83 22.319c.677-.371 1.484-1.468 1.71-1.984.161-.355.419-.694.677-1.016.468-.581 1.048-1.177 1.565-1.548a11.1 11.1 0 0 1-.129 1.355c-.242 1.097-.758 1.936-1.936 2.452-.468.194-1.387.694-1.887.742zM27.414 20.48a4.526 4.526 0 0 0-.161.936c-.016.548.081.984.016 1.468a2.314 2.314 0 0 1-.403 1.032 3.7 3.7 0 0 1-.581.694c-.436.371-1.161.79-1.758.919.226-.274.387-.5.516-.742.21-.371.323-.726.403-1.081.064-.274.129-.5.194-.726.339-1.016 1.048-1.71 1.774-2.5z"/>
      <path d="M24.509 25.545c.871-.194 2.161-1.129 2.613-1.597.323-.339.71-.613 1.129-.887.726-.484 1.597-.952 2.29-1.194-.194.452-.387.887-.677 1.403-.694 1.097-1.581 1.839-3.049 2.048-.565.064-1.758.323-2.307.226zM24.769 23.432a3.832 3.832 0 0 0-.565.887c-.242.548-.355 1-.629 1.468-.226.371-.532.661-.887.919a4.86 4.86 0 0 1-.919.516c-.613.242-1.565.436-2.242.387.355-.21.629-.387.871-.597a4.21 4.21 0 0 0 .903-.968c.177-.242.355-.468.532-.677.774-.887 1.823-1.371 2.936-1.936z"/>
      <path d="M19.491 27.61c1 .064 2.774-.468 3.452-.806.484-.242 1.016-.403 1.581-.548.984-.258 2.097-.468 2.936-.5-.403.387-.79.774-1.323 1.194-1.21.887-2.468 1.355-4.113 1.113-.629-.081-1.984-.177-2.532-.452zM20.061 15.559c-.683 0-1.324-.282-1.905-.742l.142-.649.006-.024c.126-.691.526-1.851 1.758-1.851.923 0 1.674.733 1.674 1.635-.003.898-.754 1.632-1.674 1.632zm0-4.922c-1.573 0-2.792.998-3.287 2.638-.757-1.109-1.33-2.44-1.665-3.561h-1.693v4.3c0 .847-.708 1.538-1.576 1.538s-1.576-.691-1.576-1.538v-4.3H8.571v4.3c-.006 1.761 1.462 3.206 3.266 3.206s3.272-1.445 3.272-3.206v-.721c.329.67.732 1.346 1.222 1.947L15.294 20h1.733l.751-3.453a4.24 4.24 0 0 0 2.284.67c1.856 0 3.367-1.484 3.367-3.296 0-1.809-1.511-3.284-3.367-3.284z"/>
    </symbol>
    <symbol id="icon-star" viewBox="0 0 32 32">
      <path fill="#fff" d="M14.888 1.022c.35-1.077 1.874-1.077 2.224 0l2.936 9.037c.156.482.605.808 1.112.808h9.502c1.133 0 1.604 1.449.687 2.115l-7.687 5.585a1.17 1.17 0 0 0-.425 1.307l2.936 9.036c.35 1.077-.883 1.973-1.799 1.307l-7.687-5.585a1.168 1.168 0 0 0-1.374 0l-7.687 5.585c-.916.666-2.149-.23-1.799-1.307l2.936-9.036a1.168 1.168 0 0 0-.425-1.307L.651 12.982c-.916-.666-.445-2.115.687-2.115h9.502c.507 0 .955-.326 1.112-.808l2.936-9.037z" style="fill:var(--color1, #fff)"/>
    </symbol>

  </defs>
</svg>
