<svg width="336" height="670" viewBox="0 0 336 670" fill="none" xmlns="http://www.w3.org/2000/svg">
<path d="M32 0.5H169.826C174.624 0.5 178.184 0.500945 181.028 0.793945C183.861 1.08577 185.94 1.66409 187.781 2.7959C189.622 3.92773 191.077 5.52217 192.616 7.91797C194.161 10.3235 195.769 13.5004 197.935 17.7812L203.173 28.1387C205.329 32.4014 206.964 35.632 208.543 38.0908C210.129 40.5593 211.681 42.2863 213.695 43.5244C215.709 44.7625 217.951 45.3683 220.869 45.6689C223.776 45.9684 227.397 45.9678 232.174 45.9678H304C311.556 45.9678 317.173 45.9696 321.489 46.5498C325.791 47.1281 328.725 48.2732 330.96 50.5078C333.195 52.7426 334.341 55.6769 334.919 59.9785C335.499 64.2944 335.5 69.9114 335.5 77.4678V637.547C335.5 645.093 335.499 650.703 334.92 655.014C334.343 659.31 333.199 662.242 330.969 664.476C328.738 666.71 325.808 667.857 321.513 668.44C317.203 669.026 311.593 669.036 304.047 669.047L32.0469 669.452H32.0459C24.4796 669.463 18.8551 669.47 14.5332 668.896C10.2256 668.323 7.28659 667.18 5.04785 664.944C2.80918 662.709 1.6614 659.772 1.08203 655.465C0.500782 651.144 0.5 645.519 0.5 637.952V32C0.5 24.4437 0.500855 18.8266 1.08105 14.5107C1.65939 10.2092 2.80528 7.2748 5.04004 5.04004C7.2748 2.80528 10.2092 1.65939 14.5107 1.08105C18.8266 0.500855 24.4437 0.5 32 0.5Z" stroke="#E2E2E2"/>
</svg>
