<svg width="335" height="620" viewBox="0 0 335 620" fill="none" xmlns="http://www.w3.org/2000/svg">
<path d="M0 32V587.953C0 603.058 0 610.611 4.69475 615.299C9.3895 619.987 16.9423 619.975 32.0478 619.953L303.048 619.548C318.112 619.525 325.644 619.514 330.322 614.829C335 610.144 335 602.612 335 587.548V77.4683C335 62.3833 335 54.8408 330.314 50.1545C325.627 45.4683 318.085 45.4683 303 45.4683H232.174C222.599 45.4683 217.812 45.4683 213.957 43.0983C210.102 40.7283 207.941 36.4563 203.619 27.9125L198.381 17.5557C194.059 9.01191 191.898 4.73999 188.043 2.37C184.188 0 179.401 0 169.826 0H32C16.9151 0 9.37258 0 4.68629 4.68629C0 9.37258 0 16.9151 0 32Z" fill="white"/>
</svg>
